<svg width="87" height="87" viewBox="0 0 87 87" fill="none" xmlns="http://www.w3.org/2000/svg">
<circle cx="43.5" cy="43.5" r="43.5" fill="#0099FF"/>
<path d="M49.8787 66.1213C51.0503 67.2929 52.9497 67.2929 54.1213 66.1213L73.2132 47.0294C74.3848 45.8579 74.3848 43.9584 73.2132 42.7868C72.0416 41.6152 70.1421 41.6152 68.9706 42.7868L52 59.7574L35.0294 42.7868C33.8579 41.6152 31.9584 41.6152 30.7868 42.7868C29.6152 43.9584 29.6152 45.8579 30.7868 47.0294L49.8787 66.1213ZM49 24L49 64L55 64L55 24L49 24Z" fill="#F7F7F7"/>
<path d="M35.1213 21.8787C33.9498 20.7071 32.0503 20.7071 30.8787 21.8787L11.7868 40.9706C10.6152 42.1421 10.6152 44.0416 11.7868 45.2132C12.9584 46.3848 14.8579 46.3848 16.0294 45.2132L33 28.2426L49.9706 45.2132C51.1421 46.3848 53.0416 46.3848 54.2132 45.2132C55.3848 44.0416 55.3848 42.1421 54.2132 40.9706L35.1213 21.8787ZM36 64L36 24L30 24L30 64L36 64Z" fill="#FFD700"/>
</svg>
