<?xml version="1.0" standalone="no"?>
<!DOCTYPE svg PUBLIC "-//W3C//DTD SVG 20010904//EN"
 "http://www.w3.org/TR/2001/REC-SVG-20010904/DTD/svg10.dtd">
<svg version="1.0" xmlns="http://www.w3.org/2000/svg"
 width="700.000000pt" height="700.000000pt" viewBox="0 0 700.000000 700.000000"
 preserveAspectRatio="xMidYMid meet">
<metadata>
Created by potrace 1.14, written by Peter Selinger 2001-2017
</metadata>
<g transform="translate(0.000000,700.000000) scale(0.100000,-0.100000)"
fill="#000000" stroke="none">
<path d="M3250 6339 c-36 -4 -85 -11 -110 -14 -25 -3 -52 -8 -60 -10 -8 -3
-31 -7 -50 -9 -114 -16 -370 -86 -490 -134 -14 -5 -45 -18 -70 -28 -138 -55
-410 -195 -418 -216 -2 -4 -8 -8 -13 -8 -27 0 -305 -209 -416 -313 -83 -77
-207 -208 -258 -272 -16 -21 -42 -52 -56 -69 -122 -147 -301 -455 -384 -661
-15 -38 -33 -83 -40 -100 -44 -105 -126 -425 -140 -550 -4 -33 -9 -63 -11 -66
-8 -13 -18 -210 -18 -359 0 -161 11 -329 29 -420 3 -14 8 -43 11 -65 7 -52 40
-195 59 -265 9 -30 17 -60 19 -67 1 -7 5 -16 9 -19 4 -4 7 -15 7 -25 0 -27 79
-227 143 -360 321 -676 943 -1223 1652 -1452 109 -35 244 -72 297 -81 15 -3
63 -11 105 -20 147 -28 285 -40 483 -40 143 0 317 9 365 19 11 3 37 7 58 10
95 13 121 18 257 52 140 34 332 98 435 144 28 13 52 24 55 24 7 1 178 88 225
115 45 25 227 141 235 150 3 3 39 30 80 61 121 91 138 107 280 249 183 183
258 275 392 480 44 68 209 373 207 383 -1 2 14 39 37 93 63 145 144 460 170
654 3 25 9 72 14 105 9 64 6 526 -4 585 -3 19 -8 55 -11 80 -10 77 -17 116
-29 170 -28 131 -52 222 -83 315 -269 825 -902 1480 -1723 1780 -158 58 -410
120 -575 141 -22 3 -53 7 -70 10 -52 10 -527 12 -595 3z"/>
</g>
</svg>
